<svg width="320" height="44" viewBox="0 0 320 44" fill="none" xmlns="http://www.w3.org/2000/svg">
<path fillRule="evenodd" clipRule="evenodd" d="M27.6425 41.5398C26.2408 41.8199 24.744 41.9629 23.1971 41.9629C11.824 41.5817 5.73668 30.661 5.60271 20.0716C5.56794 14.0006 7.3592 8.83812 10.6452 5.53552C13.1776 2.99008 16.4534 1.6454 20.1187 1.6454C23.9711 1.6454 27.8909 3.12605 31.7689 6.04845L32.1267 6.31839L31.4632 1.3131L31.3477 1.27842C28.4655 0.414977 25.7684 0.0297852 22.6021 0.0297852C11.7167 0.0297852 0 6.73103 0 21.444C0 27.3861 2.0949 32.9205 5.89924 37.0274C9.98677 41.4407 15.5823 43.7736 22.0797 43.7736C25.7266 43.7736 29.5503 42.9091 33.1358 41.2741L33.2452 41.2242V18.9709H27.6425V41.5398ZM158.944 15.9885L158.515 15.7647C152.973 12.8718 147.738 10.1382 147.738 6.74879C147.738 3.31946 152.883 2.10225 157.289 2.10225C161.677 2.10225 166.975 3.57892 170.785 5.86389L171.045 6.02006L171.407 1.30841L171.247 1.27473C168.134 0.613612 164.979 0.291531 161.601 0.291531C153.139 0.291531 144.097 2.63988 144.097 9.23085C144.097 14.4421 149.959 17.6466 156.166 21.039L156.167 21.0397L156.613 21.2837C162.6 24.4588 169.387 28.0588 169.387 33.7893C169.387 38.4368 165.074 41.44 158.399 41.44C154.219 41.44 149.325 39.9993 145.625 37.6806L145.362 37.516L145.001 42.1381L145.124 42.1902C147.719 43.3214 151.177 43.9702 154.609 43.9702C163.647 43.9702 172.768 39.7917 172.768 30.458C172.768 23.1732 165.423 19.3554 158.944 15.9885ZM194.877 0.160643C206.091 0.160643 213.624 8.95077 213.624 22.0327C213.624 32.3668 209.408 39.7232 201.979 42.5333C206.149 41.6861 210.38 40.281 212.572 39.2377L212.788 39.1344L213.538 42.8766L213.292 42.8592C211.59 42.7377 209.676 42.7796 207.442 42.9891C205.872 43.0916 204.147 43.2674 202.473 43.438L202.347 43.4509L202.325 43.4531C199.728 43.719 197.275 43.9701 195.4 43.9701C183.615 43.9701 176 35.3588 176 22.0327C176 8.95077 183.587 0.160643 194.877 0.160643ZM196.119 42.8112C198.844 42.8112 201.356 41.6748 203.381 39.5238C206.768 35.9258 208.393 29.9735 207.956 22.7621V22.7611C207.617 16.4777 205.929 11.069 203.074 7.11954C200.431 3.46319 197.032 1.44914 193.505 1.44914C190.751 1.44914 188.212 2.59674 186.162 4.76621C182.823 8.30082 181.203 14.058 181.602 20.9771C182.418 35.3116 189.523 42.8112 196.119 42.8112ZM297.136 0.178022C294.218 0.178022 291.157 0.406797 287.505 0.898262L287.343 0.919721V42.3943L287.503 42.4177C289.981 42.7805 292.53 42.9419 295.764 42.9419C311.167 42.9419 320 34.7079 320 20.3516C320 6.77624 312.521 0.178032 297.136 0.178032V0.178022ZM314.07 20.613C314.07 33.7064 308.375 41.5225 298.835 41.5225C297.069 41.5225 295.087 41.2721 292.945 40.7776V1.89161C294.897 1.52263 296.812 1.33552 298.639 1.33552C308.302 1.33552 314.07 8.54296 314.07 20.613ZM38.1951 1.27032H43.7976V2.29271H43.7974V40.467C48.0741 39.3204 52.4172 39.2386 56.2563 39.1672C59.1476 39.1128 61.7138 39.0567 63.8701 38.5949V42.718C62.4581 42.5995 60.8182 42.3533 58.9963 42.0784L58.9934 42.0779H58.9933C52.7715 41.139 45.0304 39.9707 39.0493 42.7764L38.9696 42.7936H38.1946L38.1946 1.63618H38.1951V1.27032ZM248.994 26.8005C248.994 34.4972 244.435 42.2889 235.72 42.2889C226.824 42.2889 222.772 34.2602 222.772 26.8005V1.63615H217.169V26.8005C217.169 32.0887 218.967 36.5379 222.368 39.6666C225.384 42.4411 229.43 43.9699 233.76 43.9699C241.656 43.9699 250.154 38.5969 250.154 26.8005V1.63615H248.994V26.8005ZM250.039 42.8866L250.121 42.6404L263.677 1.63615H267.582L283.608 42.5127L283.434 42.581H283.433L283.259 42.6496L283.236 42.5922L282.592 42.6302L282.418 42.6975L276.634 27.9277H259.815L254.683 42.8866H250.039ZM267.67 5.03279L260.072 27.1785L276.34 27.1785L267.67 5.03279ZM77.1972 28.0706H94.122L99.3495 41.4222H99.3475L99.8474 42.6985H101.11L101.037 42.5137L101.04 42.5127L85.0125 1.63615H81.1079L67.552 42.6404L67.5325 42.6985H72.1794L77.1972 28.0706ZM85.1004 5.0328L93.7162 27.0355H77.552L85.1004 5.0328ZM139.032 1.63581V1.63207L139.645 1.63206V42.6987H135.27V4.11413L122.348 28.9682L129.077 42.8631H125.308L109.107 10.0041V42.6987H104.732V1.63581H109.11L121.784 27.8053L135.27 1.63581H139.032Z" fill="black"/>
</svg>
